<mxfile host="Electron" modified="2025-03-06T07:45:04.059Z" agent="Mozilla/5.0 (Windows NT 10.0; Win64; x64) AppleWebKit/537.36 (KHTML, like Gecko) draw.io/24.4.0 Chrome/120.0.6099.109 Electron/28.1.0 Safari/537.36" etag="823_SK7OCmZPEYsXTAr5" version="24.4.0" type="device">
  <diagram name="Страница — 1" id="qQj5SURkqOIo06X-kr97">
    <mxGraphModel dx="1036" dy="614" grid="1" gridSize="10" guides="1" tooltips="1" connect="1" arrows="1" fold="1" page="1" pageScale="1" pageWidth="827" pageHeight="1169" math="0" shadow="0">
      <root>
        <mxCell id="0" />
        <mxCell id="1" parent="0" />
        <mxCell id="6StHUqtxt__LX5LR3RV--1" value="HistoryService" style="swimlane;fontStyle=1;align=center;verticalAlign=top;childLayout=stackLayout;horizontal=1;startSize=26;horizontalStack=0;resizeParent=1;resizeParentMax=0;resizeLast=0;collapsible=1;marginBottom=0;whiteSpace=wrap;html=1;" parent="1" vertex="1">
          <mxGeometry x="360" y="280" width="280" height="148" as="geometry" />
        </mxCell>
        <mxCell id="6StHUqtxt__LX5LR3RV--2" value="Stack&amp;lt;char[,]&amp;gt; history" style="text;strokeColor=none;fillColor=none;align=left;verticalAlign=top;spacingLeft=4;spacingRight=4;overflow=hidden;rotatable=0;points=[[0,0.5],[1,0.5]];portConstraint=eastwest;whiteSpace=wrap;html=1;" parent="6StHUqtxt__LX5LR3RV--1" vertex="1">
          <mxGeometry y="26" width="280" height="26" as="geometry" />
        </mxCell>
        <mxCell id="6StHUqtxt__LX5LR3RV--3" value="" style="line;strokeWidth=1;fillColor=none;align=left;verticalAlign=middle;spacingTop=-1;spacingLeft=3;spacingRight=3;rotatable=0;labelPosition=right;points=[];portConstraint=eastwest;strokeColor=inherit;" parent="6StHUqtxt__LX5LR3RV--1" vertex="1">
          <mxGeometry y="52" width="280" height="8" as="geometry" />
        </mxCell>
        <mxCell id="6StHUqtxt__LX5LR3RV--4" value="SaveState(Dictionary&amp;lt;string, Shape&amp;gt; currentState)" style="text;strokeColor=none;fillColor=none;align=left;verticalAlign=top;spacingLeft=4;spacingRight=4;overflow=hidden;rotatable=0;points=[[0,0.5],[1,0.5]];portConstraint=eastwest;whiteSpace=wrap;html=1;" parent="6StHUqtxt__LX5LR3RV--1" vertex="1">
          <mxGeometry y="60" width="280" height="36" as="geometry" />
        </mxCell>
        <mxCell id="6StHUqtxt__LX5LR3RV--11" value="void Undo(ref Dictionary&amp;lt;string, Shape&amp;gt; shapes)" style="text;strokeColor=none;fillColor=none;align=left;verticalAlign=top;spacingLeft=4;spacingRight=4;overflow=hidden;rotatable=0;points=[[0,0.5],[1,0.5]];portConstraint=eastwest;whiteSpace=wrap;html=1;" parent="6StHUqtxt__LX5LR3RV--1" vertex="1">
          <mxGeometry y="96" width="280" height="26" as="geometry" />
        </mxCell>
        <mxCell id="6StHUqtxt__LX5LR3RV--12" value="void Redo(ref Dictionary&amp;lt;string, Shape&amp;gt; shapes)" style="text;strokeColor=none;fillColor=none;align=left;verticalAlign=top;spacingLeft=4;spacingRight=4;overflow=hidden;rotatable=0;points=[[0,0.5],[1,0.5]];portConstraint=eastwest;whiteSpace=wrap;html=1;" parent="6StHUqtxt__LX5LR3RV--1" vertex="1">
          <mxGeometry y="122" width="280" height="26" as="geometry" />
        </mxCell>
        <mxCell id="6StHUqtxt__LX5LR3RV--5" value="IHistoryService" style="swimlane;fontStyle=1;align=center;verticalAlign=top;childLayout=stackLayout;horizontal=1;startSize=26;horizontalStack=0;resizeParent=1;resizeParentMax=0;resizeLast=0;collapsible=1;marginBottom=0;whiteSpace=wrap;html=1;" parent="1" vertex="1">
          <mxGeometry x="360" y="60" width="340" height="138" as="geometry" />
        </mxCell>
        <mxCell id="6StHUqtxt__LX5LR3RV--6" value="Stack&amp;lt;char[,]&amp;gt; history" style="text;strokeColor=none;fillColor=none;align=left;verticalAlign=top;spacingLeft=4;spacingRight=4;overflow=hidden;rotatable=0;points=[[0,0.5],[1,0.5]];portConstraint=eastwest;whiteSpace=wrap;html=1;" parent="6StHUqtxt__LX5LR3RV--5" vertex="1">
          <mxGeometry y="26" width="340" height="26" as="geometry" />
        </mxCell>
        <mxCell id="6StHUqtxt__LX5LR3RV--7" value="" style="line;strokeWidth=1;fillColor=none;align=left;verticalAlign=middle;spacingTop=-1;spacingLeft=3;spacingRight=3;rotatable=0;labelPosition=right;points=[];portConstraint=eastwest;strokeColor=inherit;" parent="6StHUqtxt__LX5LR3RV--5" vertex="1">
          <mxGeometry y="52" width="340" height="8" as="geometry" />
        </mxCell>
        <mxCell id="6StHUqtxt__LX5LR3RV--8" value="void SaveState(Dictionary&amp;lt;string, Shape&amp;gt; currentState)" style="text;strokeColor=none;fillColor=none;align=left;verticalAlign=top;spacingLeft=4;spacingRight=4;overflow=hidden;rotatable=0;points=[[0,0.5],[1,0.5]];portConstraint=eastwest;whiteSpace=wrap;html=1;" parent="6StHUqtxt__LX5LR3RV--5" vertex="1">
          <mxGeometry y="60" width="340" height="26" as="geometry" />
        </mxCell>
        <mxCell id="6StHUqtxt__LX5LR3RV--10" value="void Undo(ref Dictionary&amp;lt;string, Shape&amp;gt; shapes)" style="text;strokeColor=none;fillColor=none;align=left;verticalAlign=top;spacingLeft=4;spacingRight=4;overflow=hidden;rotatable=0;points=[[0,0.5],[1,0.5]];portConstraint=eastwest;whiteSpace=wrap;html=1;" parent="6StHUqtxt__LX5LR3RV--5" vertex="1">
          <mxGeometry y="86" width="340" height="26" as="geometry" />
        </mxCell>
        <mxCell id="6StHUqtxt__LX5LR3RV--13" value="void Redo(ref Dictionary&amp;lt;string, Shape&amp;gt; shapes)" style="text;strokeColor=none;fillColor=none;align=left;verticalAlign=top;spacingLeft=4;spacingRight=4;overflow=hidden;rotatable=0;points=[[0,0.5],[1,0.5]];portConstraint=eastwest;whiteSpace=wrap;html=1;" parent="6StHUqtxt__LX5LR3RV--5" vertex="1">
          <mxGeometry y="112" width="340" height="26" as="geometry" />
        </mxCell>
        <mxCell id="6StHUqtxt__LX5LR3RV--16" value="" style="endArrow=block;dashed=1;endFill=0;endSize=12;html=1;rounded=0;entryX=0.5;entryY=0;entryDx=0;entryDy=0;exitX=0.416;exitY=1.038;exitDx=0;exitDy=0;exitPerimeter=0;" parent="1" target="6StHUqtxt__LX5LR3RV--1" edge="1" source="6StHUqtxt__LX5LR3RV--13">
          <mxGeometry width="160" relative="1" as="geometry">
            <mxPoint x="464.5" y="224" as="sourcePoint" />
            <mxPoint x="464.5" y="294" as="targetPoint" />
          </mxGeometry>
        </mxCell>
      </root>
    </mxGraphModel>
  </diagram>
</mxfile>
